<?xml version="1.0" standalone="no"?><!DOCTYPE svg PUBLIC "-//W3C//DTD SVG 1.1//EN" "http://www.w3.org/Graphics/SVG/1.1/DTD/svg11.dtd"><svg class="icon" width="28px" height="28.00px" viewBox="0 0 1024 1024" version="1.1" xmlns="http://www.w3.org/2000/svg"><path fill="#E6EFFF" d="M320 832V192h215.168c71.424 0 125.056 14.336 160.96 43.072 36.16 28.736 54.272 71.232 54.272 127.488 0 29.888-8.768 56.384-26.24 79.552-17.472 22.848-41.28 40.576-71.424 53.184 35.584 9.664 63.552 28.16 84.096 55.36 20.8 27.008 31.168 59.2 31.168 96.704 0 57.472-19.136 102.592-57.408 135.424-38.272 32.832-92.352 49.216-162.304 49.216H320z m86.784-299.328v230.336h143.36c40.32 0 72.128-10.112 95.36-30.336 23.488-20.48 35.2-48.64 35.2-84.416 0-77.056-43.072-115.584-129.28-115.584h-144.64z m0-67.712h131.136c37.952 0 68.224-9.216 90.88-27.712 22.848-18.432 34.304-43.52 34.304-75.136 0-35.2-10.56-60.672-31.616-76.48-21.12-16.128-53.184-24.192-96.32-24.192H406.784v203.52z" /></svg>