<?xml version="1.0" standalone="no"?><!DOCTYPE svg PUBLIC "-//W3C//DTD SVG 1.1//EN" "http://www.w3.org/Graphics/SVG/1.1/DTD/svg11.dtd"><svg class="icon" width="28px" height="28.00px" viewBox="0 0 1024 1024" version="1.1" xmlns="http://www.w3.org/2000/svg"><path fill="#E6EFFF" d="M156.09136 606.57001a457.596822 457.596822 0 0 1 221.680239-392.516385 50.844091 50.844091 0 1 1 50.844091 86.943396 355.90864 355.90864 0 0 0-138.804369 152.532274h16.77855a152.532274 152.532274 0 1 1-152.532274 152.532274z m406.752731 0a457.596822 457.596822 0 0 1 221.680239-392.007944 50.844091 50.844091 0 1 1 50.844091 86.943396 355.90864 355.90864 0 0 0-138.804369 152.532274h16.77855a152.532274 152.532274 0 1 1-152.532274 152.532274z"  /></svg>