<?xml version="1.0" standalone="no"?><!DOCTYPE svg PUBLIC "-//W3C//DTD SVG 1.1//EN" "http://www.w3.org/Graphics/SVG/1.1/DTD/svg11.dtd"><svg class="icon" width="28px" height="28.00px" viewBox="0 0 1024 1024" version="1.1" xmlns="http://www.w3.org/2000/svg"><path fill="#E6EFFF" d="M816.166 869.482c28.281 0 51.221-22.482 51.221-51.272V641.404c0-13.937 11.801-25.229 25.432-25.229 14.039 0 25.432 11.546 25.432 25.941v175.992c0.141 56.172-45.252 101.838-101.424 102.035H205.84c-56.127-0.112-101.537-45.703-101.425-101.83l0.001-0.205V642.117c-0.003-14.13 11.305-25.664 25.432-25.941 14.039 0 25.432 10.885 25.432 25.229V818.21c0 28.332 22.889 51.272 51.221 51.272h609.665zM562.198 453.103c-362.462 10.275-406.918 129.96-406.918 129.96 0-183.215 150.458-365.209 457.783-359.512v-49.695l0.966-0.916h-0.966v-11.699c0-55.697 34.741-71.821 77.62-35.504L901.67 304.68c21.465 18.21 21.465 47.711 0 65.921L690.479 550c-42.726 36.216-77.416 20.448-77.416-35.402V452.39c-17.345 0-34.079 0.203-50.153 0.661l-0.712-0.661v0.713z m50.865-51.373c28.077 0 50.865 22.686 50.865 50.661v52.899L862.3 337.589 663.928 169.38v54.12c-0.05 28.036-22.818 50.722-50.853 50.672a53.15 53.15 0 0 1-0.978-0.011c-190.743-3.561-324.364 72.533-378.79 186.165 73.55-34.588 193.184-58.494 379.756-58.494v-0.102z" /></svg>