<?xml version="1.0" standalone="no"?><!DOCTYPE svg PUBLIC "-//W3C//DTD SVG 1.1//EN" "http://www.w3.org/Graphics/SVG/1.1/DTD/svg11.dtd"><svg class="icon" width="28px" height="28.00px" viewBox="0 0 1024 1024" version="1.1" xmlns="http://www.w3.org/2000/svg"><path fill="#E6EFFF" d="M746.666667 512a234.666667 234.666667 0 1 1 0 469.333333 234.666667 234.666667 0 0 1 0-469.333333zM128 810.666667h348.757333c7.253333 30.762667 19.626667 59.562667 36.224 85.376L128 896a42.666667 42.666667 0 0 1-4.992-85.034667L128 810.666667z m515.968-172.117334l-2.986667 2.474667-2.432 2.986667a21.333333 21.333333 0 0 0 0 24.234666l2.474667 2.986667 75.52 75.477333-75.434667 75.349334-2.432 2.986666a21.333333 21.333333 0 0 0 0 24.234667l2.432 2.986667 2.986667 2.432a21.333333 21.333333 0 0 0 24.234667 0l2.986666-2.432 75.349334-75.392 75.52 75.477333 2.944 2.474667a21.333333 21.333333 0 0 0 24.234666 0l2.986667-2.474667 2.432-2.986667a21.333333 21.333333 0 0 0 0-24.234666l-2.432-2.986667-75.52-75.434667 75.605333-75.52 2.474667-2.944a21.333333 21.333333 0 0 0 0-24.277333l-2.474667-2.944-2.944-2.474667a21.333333 21.333333 0 0 0-24.277333 0l-2.944 2.474667-75.605333 75.52-75.52-75.52-2.901334-2.474667a21.333333 21.333333 0 0 0-21.034666-1.834666l-3.242667 1.834666zM682.709333 128A42.666667 42.666667 0 0 1 725.333333 172.714667l-0.512 4.821333-10.453333 64a42.666667 42.666667 0 0 1-84.736-8.789333l0.512-4.949334 2.346667-14.464h-144.725334l-75.093333 469.333334H426.666667a42.666667 42.666667 0 0 1 42.368 37.674666L469.333333 725.333333a42.666667 42.666667 0 0 1-37.674666 42.368L426.666667 768H298.666667a42.666667 42.666667 0 0 1-4.992-85.034667L298.666667 682.666667h27.605333l75.093333-469.333334h-151.893333l-4.778667 28.373334A42.666667 42.666667 0 0 1 160 232.533333l0.512-4.949333 10.709333-64a42.666667 42.666667 0 0 1 36.949334-35.328L213.290667 128h469.418666z" /></svg>