<?xml version="1.0" standalone="no"?><!DOCTYPE svg PUBLIC "-//W3C//DTD SVG 1.1//EN" "http://www.w3.org/Graphics/SVG/1.1/DTD/svg11.dtd"><svg class="icon" width="28px" height="28.00px" viewBox="0 0 1024 1024" version="1.1" xmlns="http://www.w3.org/2000/svg"><path fill="#E6EFFF" d="M88 448h400V172c0-24.3 19.7-44 44-44s44 19.7 44 44v680c0 24.3-19.7 44-44 44s-44-19.7-44-44V536H88v316c0 24.3-19.7 44-44 44S0 876.3 0 852V172c0-24.3 19.7-44 44-44s44 19.7 44 44v276zM815.551 597.802c13.128 0.47 26.257-0.469 39.385-2.813 13.129-2.344 24.85-6.447 35.165-12.308 10.316-5.86 18.638-13.948 24.968-24.263 6.33-10.315 9.494-22.975 9.494-37.978 0-21.1-7.15-37.978-21.45-50.638-14.301-12.66-32.704-18.989-55.21-18.989-14.066 0-26.257 2.813-36.572 8.44-10.315 5.626-18.872 13.245-25.67 22.857-6.799 9.612-11.84 20.395-15.121 32.352-3.283 11.956-4.69 24.263-4.22 36.923h-80.177c0.938-23.913 5.392-46.066 13.363-66.462 7.97-20.396 18.872-38.095 32.703-53.099 13.832-15.004 30.594-26.725 50.287-35.165C802.188 388.22 824.459 384 849.31 384c19.223 0 38.095 2.813 56.616 8.44 18.52 5.626 35.165 13.831 49.934 24.615 14.77 10.784 26.609 24.498 35.517 41.143 8.909 16.645 13.363 35.75 13.363 57.318 0 24.85-5.626 46.535-16.88 65.055-11.252 18.52-28.835 32-52.747 40.44v1.407c28.132 5.626 50.052 19.575 65.759 41.846 15.707 22.27 23.56 49.348 23.56 81.23 0 23.444-4.688 44.425-14.065 62.946-9.378 18.52-22.037 34.227-37.979 47.12-15.942 12.894-34.462 22.858-55.561 29.89-21.1 7.034-43.37 10.55-66.814 10.55-28.601 0-53.568-4.103-74.902-12.308-21.334-8.205-39.15-19.81-53.451-34.813-14.3-15.004-25.202-33.055-32.704-54.154-7.502-21.099-11.487-44.542-11.956-70.33h80.177c-0.938 30.008 6.447 54.975 22.154 74.902s39.268 29.89 70.682 29.89c26.726 0 49.114-7.62 67.166-22.857 18.051-15.239 27.077-36.923 27.077-65.055 0-19.224-3.751-34.462-11.253-45.715-7.502-11.252-17.348-19.81-29.539-25.67-12.19-5.86-25.905-9.494-41.143-10.901-15.239-1.407-30.828-1.875-46.77-1.407v-59.78z" /></svg>