<?xml version="1.0" standalone="no"?><!DOCTYPE svg PUBLIC "-//W3C//DTD SVG 1.1//EN" "http://www.w3.org/Graphics/SVG/1.1/DTD/svg11.dtd"><svg class="icon" width="28px" height="28.00px" viewBox="0 0 1024 1024" version="1.1" xmlns="http://www.w3.org/2000/svg"><path fill="#E6EFFF" d="M411.648 640h52.672V256h-52.672v167.04h-167.04V256H192v384h52.672V473.216h167.04V640z m362.752 0h57.6l-81.92-168.32c8.384-3.712 16.64-8.576 24.896-14.72a106.624 106.624 0 0 0 37.44-51.008c4.096-10.944 6.144-23.296 6.144-37.12a113.28 113.28 0 0 0-5.248-35.648 105.216 105.216 0 0 0-14.08-28.544 96.256 96.256 0 0 0-19.84-21.824 119.296 119.296 0 0 0-47.168-23.872A92.544 92.544 0 0 0 710.4 256h-157.44v384h52.736V481.152h93.888L774.4 640z m-43.584-212.48a55.936 55.936 0 0 1-18.752 3.52H605.632V306.368h106.432a55.68 55.68 0 0 1 36.864 15.36c5.632 5.12 10.368 11.584 14.08 19.456 3.648 7.872 5.504 17.088 5.504 27.712 0 10.752-1.856 20.096-5.568 27.968a58.24 58.24 0 0 1-32.192 30.656zM832 768H192v64h640v-64z" /></svg>