<?xml version="1.0" standalone="no"?><!DOCTYPE svg PUBLIC "-//W3C//DTD SVG 1.1//EN" "http://www.w3.org/Graphics/SVG/1.1/DTD/svg11.dtd"><svg class="icon" width="28px" height="28.00px" viewBox="0 0 1024 1024" version="1.1" xmlns="http://www.w3.org/2000/svg"><path fill="#E6EFFF" d="M191.77728 949.728l9.728-48.576q12.576-4 35.136-9.44t41.152-10.848 34.016-13.44q16-20 23.424-57.728 0.576-4 35.424-165.152t65.152-310.56 29.728-169.44v-14.272q-13.728-7.424-31.136-10.56t-39.712-4.576-33.152-3.136l10.848-58.848q18.848 1.152 68.576 3.712t85.44 4 68.864 1.44q27.424 0 56.288-1.44t69.152-4 56.288-3.712q-2.848 22.272-10.848 50.848-17.152 5.728-58.016 16.288t-62.016 19.136q-4.576 10.848-8 24.288t-5.152 22.848-4.288 26.016-3.712 24q-15.424 84.576-50.016 239.712t-44.288 203.136l-7.424 33.152q-6.272 28-11.424 51.424t-9.152 47.712-3.424 32.864l0.576 10.272q9.728 2.272 105.728 17.728-1.728 25.152-9.152 56.576-6.272 0-18.56 0.864t-18.56 0.864q-16.576 0-49.728-5.728t-49.152-5.728q-78.848-1.152-117.728-1.152-29.152 0-81.728 5.152T191.77728 949.696z"  /></svg>