<?xml version="1.0" standalone="no"?><!DOCTYPE svg PUBLIC "-//W3C//DTD SVG 1.1//EN" "http://www.w3.org/Graphics/SVG/1.1/DTD/svg11.dtd"><svg class="icon" width="28px" height="28.00px" viewBox="0 0 1024 1024" version="1.1" xmlns="http://www.w3.org/2000/svg"><path fill="#E6EFFF" d="M260.267 266.667c0 21.333-6.4 38.4-21.334 53.333s-32 21.333-53.333 21.333-38.4-6.4-53.333-21.333-21.334-32-21.334-53.333 6.4-38.4 21.334-53.334S164.267 192 185.6 192s38.4 6.4 53.333 21.333 21.334 32 21.334 53.334zM185.6 437.333c21.333 0 38.4 6.4 53.333 21.334s21.334 32 21.334 53.333-6.4 38.4-21.334 53.333-32 21.334-53.333 21.334-38.4-6.4-53.333-21.334-21.334-32-21.334-53.333 6.4-38.4 21.334-53.333 32-21.334 53.333-21.334z m0 247.467c21.333 0 38.4 6.4 53.333 21.333s21.334 32 21.334 53.334-6.4 38.4-21.334 53.333-32 21.333-53.333 21.333-38.4-6.4-53.333-21.333-21.334-32-21.334-53.333 6.4-38.4 21.334-53.334 32-21.333 53.333-21.333z m714.667-394.667c0 4.267-2.134 8.534-6.4 12.8-4.267 4.267-8.534 4.267-12.8 4.267H326.4c-4.267 0-8.533-2.133-12.8-4.267-4.267-4.266-6.4-8.533-6.4-12.8V243.2c0-4.267 2.133-8.533 6.4-12.8 4.267-4.267 8.533-4.267 12.8-4.267h554.667c4.266 0 8.533 2.134 12.8 4.267 4.266 4.267 6.4 8.533 6.4 12.8v46.933z m0 245.334c0 4.266-2.134 8.533-6.4 12.8-4.267 4.266-8.534 4.266-12.8 4.266H326.4c-4.267 0-8.533-2.133-12.8-4.266-4.267-4.267-6.4-8.534-6.4-12.8v-46.934c0-4.266 2.133-8.533 6.4-12.8 4.267-4.266 8.533-4.266 12.8-4.266h554.667c4.266 0 8.533 2.133 12.8 4.266 4.266 4.267 6.4 8.534 6.4 12.8v46.934z m0 245.333c0 4.267-2.134 8.533-6.4 12.8-4.267 4.267-8.534 4.267-12.8 4.267H326.4c-4.267 0-8.533-2.134-12.8-4.267-4.267-4.267-6.4-8.533-6.4-12.8v-46.933c0-4.267 2.133-8.534 6.4-12.8 4.267-4.267 8.533-4.267 12.8-4.267h554.667c4.266 0 8.533 2.133 12.8 4.267 4.266 4.266 6.4 8.533 6.4 12.8V780.8zM260.267 266.667c0 21.333-6.4 38.4-21.334 53.333s-32 21.333-53.333 21.333-38.4-6.4-53.333-21.333-21.334-32-21.334-53.333 6.4-38.4 21.334-53.334S164.267 192 185.6 192s38.4 6.4 53.333 21.333 21.334 32 21.334 53.334zM185.6 437.333c21.333 0 38.4 6.4 53.333 21.334s21.334 32 21.334 53.333-6.4 38.4-21.334 53.333-32 21.334-53.333 21.334-38.4-6.4-53.333-21.334-21.334-32-21.334-53.333 6.4-38.4 21.334-53.333 32-21.334 53.333-21.334z m0 247.467c21.333 0 38.4 6.4 53.333 21.333s21.334 32 21.334 53.334-6.4 38.4-21.334 53.333-32 21.333-53.333 21.333-38.4-6.4-53.333-21.333-21.334-32-21.334-53.333 6.4-38.4 21.334-53.334 32-21.333 53.333-21.333z m714.667-394.667c0 4.267-2.134 8.534-6.4 12.8-4.267 4.267-8.534 4.267-12.8 4.267H326.4c-4.267 0-8.533-2.133-12.8-4.267-4.267-4.266-6.4-8.533-6.4-12.8V243.2c0-4.267 2.133-8.533 6.4-12.8 4.267-4.267 8.533-4.267 12.8-4.267h554.667c4.266 0 8.533 2.134 12.8 4.267 4.266 4.267 6.4 8.533 6.4 12.8v46.933z m0 245.334c0 4.266-2.134 8.533-6.4 12.8-4.267 4.266-8.534 4.266-12.8 4.266H326.4c-4.267 0-8.533-2.133-12.8-4.266-4.267-4.267-6.4-8.534-6.4-12.8v-46.934c0-4.266 2.133-8.533 6.4-12.8 4.267-4.266 8.533-4.266 12.8-4.266h554.667c4.266 0 8.533 2.133 12.8 4.266 4.266 4.267 6.4 8.534 6.4 12.8v46.934z m0 245.333c0 4.267-2.134 8.533-6.4 12.8-4.267 4.267-8.534 4.267-12.8 4.267H326.4c-4.267 0-8.533-2.134-12.8-4.267-4.267-4.267-6.4-8.533-6.4-12.8v-46.933c0-4.267 2.133-8.534 6.4-12.8 4.267-4.267 8.533-4.267 12.8-4.267h554.667c4.266 0 8.533 2.133 12.8 4.267 4.266 4.266 6.4 8.533 6.4 12.8V780.8z" /></svg>