<?xml version="1.0" standalone="no"?><!DOCTYPE svg PUBLIC "-//W3C//DTD SVG 1.1//EN" "http://www.w3.org/Graphics/SVG/1.1/DTD/svg11.dtd"><svg class="icon" width="28px" height="28.00px" viewBox="0 0 1024 1024" version="1.1" xmlns="http://www.w3.org/2000/svg"><path d="M352 640v256c0 17.6-14.4 32-32 32H64c-17.6 0-32-14.4-32-32v-256c0-17.6 14.4-32 32-32h256c17.6 0 32 14.4 32 32zM352 128v256c0 17.6-14.4 32-32 32H64c-17.6 0-32-14.4-32-32V128c0-17.6 14.4-32 32-32h256c17.6 0 32 14.4 32 32z" fill="#E0EBFE" /><path d="M64 448h256c35.296 0 64-28.704 64-64V128c0-35.296-28.704-64-64-64H64C28.704 64 0 92.704 0 128v256c0 35.296 28.704 64 64 64zM64 128h256l-0.096 256H64V128zM64 960h256c35.296 0 64-28.704 64-64v-256c0-35.296-28.704-64-64-64H64c-35.296 0-64 28.704-64 64v256c0 35.296 28.704 64 64 64z m0-320h256l-0.096 256H64v-256zM992 160H480a32 32 0 0 0 0 64h512a32 32 0 0 0 0-64zM480 352h320a32 32 0 0 0 0-64H480a32 32 0 0 0 0 64zM992 672H480a32 32 0 1 0 0 64h512a32 32 0 1 0 0-64zM800 864a32 32 0 1 0 0-64H480a32 32 0 1 0 0 64h320z" fill="#5465CF" /></svg>