<?xml version="1.0" standalone="no"?><!DOCTYPE svg PUBLIC "-//W3C//DTD SVG 1.1//EN" "http://www.w3.org/Graphics/SVG/1.1/DTD/svg11.dtd"><svg t="1655173235732" class="icon" viewBox="0 0 1024 1024" version="1.1" xmlns="http://www.w3.org/2000/svg" p-id="3943" xmlns:xlink="http://www.w3.org/1999/xlink" width="28" height="28"><defs><style type="text/css"></style></defs><path d="M682.666667 597.333333a42.666667 42.666667 0 0 1 42.666666 42.666667v213.333333a42.666667 42.666667 0 0 1-85.333333 0v-213.333333a42.666667 42.666667 0 0 1 42.666667-42.666667z m42.666666-366.933333V512a42.666667 42.666667 0 0 1-85.333333 0V230.4a17.066667 17.066667 0 0 0-17.066667-17.066667h-51.2a17.066667 17.066667 0 0 0-17.066666 17.066667V853.333333a42.666667 42.666667 0 0 1-85.333334 0v-298.666666H384A213.333333 213.333333 0 0 1 384 128h426.666667a42.666667 42.666667 0 0 1 0 85.333333h-68.266667a17.066667 17.066667 0 0 0-17.066667 17.066667zM452.266667 213.333333H384a128 128 0 1 0 0 256h68.266667a17.066667 17.066667 0 0 0 17.066666-17.066666V230.4a17.066667 17.066667 0 0 0-17.066666-17.066667z" p-id="3944" fill="#E6EFFF"></path></svg>