<?xml version="1.0" standalone="no"?><!DOCTYPE svg PUBLIC "-//W3C//DTD SVG 1.1//EN" "http://www.w3.org/Graphics/SVG/1.1/DTD/svg11.dtd"><svg class="icon" width="28px" height="27.10px" viewBox="0 0 1058 1024" version="1.1" xmlns="http://www.w3.org/2000/svg"><path fill="#E6EFFF" d="M330.744242 885.372121l194.779798-129.861818 16.665859-11.106263h383.844848c36.486465 0 66.19798-29.659798 66.19798-66.146262v-529.19596c0-36.434747-29.711515-66.107475-66.19798-66.107475H132.305455c-36.486465 0-66.146263 29.659798-66.146263 66.107475v529.19596c0 36.486465 29.659798 66.146263 66.146263 66.146262h198.438787v140.968081m-66.146262 123.578182V810.550303H132.305455c-73.024646 0-132.305455-59.216162-132.305455-132.292525v-529.19596C0 76.024242 59.267879 16.808081 132.305455 16.808081h793.742222c73.076364 0 132.357172 59.216162 132.357171 132.240808v529.195959c0 73.076364-59.267879 132.292525-132.357171 132.292526h-363.830303L264.59798 1008.950303z m0 0" /></svg>