<?xml version="1.0" standalone="no"?><!DOCTYPE svg PUBLIC "-//W3C//DTD SVG 1.1//EN" "http://www.w3.org/Graphics/SVG/1.1/DTD/svg11.dtd"><svg t="1655187173309" class="icon" viewBox="0 0 1024 1024" version="1.1" xmlns="http://www.w3.org/2000/svg" p-id="6085" width="28" height="28" xmlns:xlink="http://www.w3.org/1999/xlink"><defs><style type="text/css"></style></defs><path d="M175.780571 523.794286h248.576c11.154286 3.419429 22.290286 6.857143 34.706286 9.417143l79.286857 18.852571c88.722286 21.430857 126.006857 50.578286 126.006857 102.016 0 61.696-62.994286 105.856-152.576 105.856-79.286857 0-138.422857-35.584-160.713142-96.438857-7.716571-18.432-17.133714-26.569143-35.145143-26.569143-22.710857 0-36.845714 14.134857-36.845715 36.425143 0 7.716571 0.859429 15.853714 2.998858 24.009143 22.710857 81.005714 112.274286 131.565714 230.144 131.565714 141.860571 0 233.142857-72.411429 233.142857-184.283429 0-53.577143-19.712-92.16-63.012572-120.868571h165.851429a17.371429 17.371429 0 0 0 17.590857-17.554286 17.371429 17.371429 0 0 0-17.572571-17.572571H602.221714a408.283429 408.283429 0 0 0-38.144-10.294857l-69.851428-16.713143c-87.003429-20.992-123.867429-47.561143-123.867429-95.140572 0-59.995429 59.136-102.436571 140.982857-102.436571 73.728 0 126.445714 33.444571 147.437715 92.580571 7.296 16.274286 17.152 23.990857 34.285714 23.990858 22.308571 0 36.022857-12.854857 36.022857-34.285715 0-6.418286-0.877714-13.275429-2.596571-19.712-19.273143-77.988571-104.996571-131.565714-215.131429-131.565714-129.005714 0-221.988571 73.289143-221.988571 177.005714 0 50.56 18.834286 88.283429 59.136 116.571429H175.780571a17.371429 17.371429 0 0 0-17.554285 17.554286c0 9.874286 7.698286 17.590857 17.554285 17.590857z" p-id="6086" fill="#E6EFFF"></path></svg>