<svg display="none" xmlns="http://www.w3.org/2000/svg">
  <symbol id="aixin" class="aicon" viewBox="0 0 28 28" xmlns="http://www.w3.org/2000/svg">
    <path fill="#E6EFFF"
      d="M667.787 117.333c165.077 0 270.88 132.374 270.88 310.528 0 138.251-125.099 290.507-371.574 461.59a96.768 96.768 0 0 1-110.186 0C210.432 718.368 85.333 566.112 85.333 427.86c0-178.154 105.803-310.528 270.88-310.528 59.616 0 100.054 20.832 155.787 68.096 55.744-47.253 96.17-68.096 155.787-68.096zm0 63.147c-41.44 0-70.262 15.19-116.96 55.04-2.166 1.845-14.4 12.373-17.942 15.381a32.32 32.32 0 0 1-41.77 0c-3.542-3.018-15.776-13.536-17.942-15.381-46.698-39.85-75.52-55.04-116.96-55.04-126.026 0-206.88 100.779-206.88 246.219 0 110.901 113.526 248.544 344.299 408.128a32.352 32.352 0 0 0 36.736 0C761.141 675.253 874.667 537.6 874.667 426.699c0-145.44-80.854-246.219-206.88-246.219z" />
  </symbol>
  <symbol id="arrow-go-back-line" class="aicon" viewBox="0 0 1024 1024" xmlns="http://www.w3.org/2000/svg">
    <path fill="#E6EFFF"
      d="M884.451 455.595c-18.251-42.96-44.333-81.57-77.521-114.758s-71.797-59.269-114.758-77.521c-44.598-18.947-91.854-28.553-140.456-28.553H373.73c-.93 0-1.852.031-2.772.07V86.666c0-17.787-21.505-26.695-34.083-14.117L116.843 292.581c-7.797 7.797-7.797 20.438 0 28.235l220.032 220.032c12.577 12.577 34.083 3.67 34.083-14.117V362.693c.92.039 1.842.07 2.772.07h177.986c128.636 0 233.288 104.652 233.288 233.288 0 128.636-104.652 233.288-233.288 233.288H373.73c-35.346 0-64 28.653-64 64s28.654 64 64 64h177.986c48.603 0 95.858-9.606 140.456-28.554 42.961-18.251 81.57-44.333 114.758-77.521s59.27-71.797 77.521-114.758c18.947-44.598 28.554-91.854 28.554-140.456s-9.607-95.857-28.554-140.455z" />
  </symbol>
  <symbol id="arrow-go-forward-line" class="aicon" viewBox="0 0 1024 1024" xmlns="http://www.w3.org/2000/svg">
    <path fill="#E6EFFF"
      d="M139.549 455.595c18.251-42.96 44.333-81.57 77.521-114.758s71.797-59.269 114.758-77.521c44.598-18.947 91.854-28.553 140.456-28.553H650.27c.93 0 1.852.031 2.772.07V86.666c0-17.787 21.505-26.695 34.083-14.117l220.032 220.032c7.797 7.797 7.797 20.438 0 28.235L687.125 540.848c-12.577 12.577-34.083 3.67-34.083-14.117V362.694c-.92.039-1.842.07-2.772.07H472.283c-128.636 0-233.288 104.652-233.288 233.288 0 128.636 104.652 233.288 233.288 233.288H650.27c35.346 0 64 28.653 64 64s-28.654 64-64 64H472.283c-48.603 0-95.858-9.606-140.456-28.554-42.961-18.251-81.57-44.333-114.758-77.521s-59.27-71.797-77.521-114.758c-18.947-44.598-28.554-91.854-28.554-140.456s9.608-95.858 28.555-140.456z" />
  </symbol>
  <symbol id="bold" class="aicon" viewBox="0 0 1024 1024" xmlns="http://www.w3.org/2000/svg">
    <path fill="#E6EFFF"
      d="M320 832V192h215.168c71.424 0 125.056 14.336 160.96 43.072 36.16 28.736 54.272 71.232 54.272 127.488 0 29.888-8.768 56.384-26.24 79.552-17.472 22.848-41.28 40.576-71.424 53.184 35.584 9.664 63.552 28.16 84.096 55.36 20.8 27.008 31.168 59.2 31.168 96.704 0 57.472-19.136 102.592-57.408 135.424C672.32 815.616 618.24 832 548.288 832H320zm86.784-299.328v230.336h143.36c40.32 0 72.128-10.112 95.36-30.336 23.488-20.48 35.2-48.64 35.2-84.416 0-77.056-43.072-115.584-129.28-115.584h-144.64zm0-67.712H537.92c37.952 0 68.224-9.216 90.88-27.712 22.848-18.432 34.304-43.52 34.304-75.136 0-35.2-10.56-60.672-31.616-76.48-21.12-16.128-53.184-24.192-96.32-24.192H406.784v203.52z" />
  </symbol>
  <symbol id="code-box-line" class="aicon" viewBox="0 0 1024 1024" xmlns="http://www.w3.org/2000/svg">
    <path fill="#E6EFFF"
      d="M336 784c-12.286 0-24.57-4.688-33.942-14.058l-224-224c-18.746-18.746-18.746-49.138 0-67.882l224-224c18.746-18.744 49.136-18.744 67.882 0 18.742 18.744 18.742 49.136 0 67.882L179.882 512 369.94 702.058c18.742 18.746 18.742 49.136 0 67.882C360.566 779.312 348.286 784 336 784zm352 0c12.286 0 24.57-4.688 33.942-14.058l224-224c18.746-18.746 18.746-49.138 0-67.882l-224-224c-18.746-18.744-49.136-18.744-67.882 0-18.742 18.744-18.742 49.136 0 67.882L844.118 512 654.06 702.058c-18.742 18.746-18.742 49.136 0 67.882C663.434 779.312 675.714 784 688 784z" />
  </symbol>
  <symbol id="double-quotes-l" class="aicon" viewBox="0 0 1024 1024" xmlns="http://www.w3.org/2000/svg">
    <path fill="#E6EFFF"
      d="M156.091 606.57a457.597 457.597 0 0 1 221.68-392.516 50.844 50.844 0 1 1 50.845 86.943A355.909 355.909 0 0 0 289.81 453.529h16.779a152.532 152.532 0 1 1-152.532 152.533zm406.753 0a457.597 457.597 0 0 1 221.68-392.008 50.844 50.844 0 1 1 50.844 86.943 355.909 355.909 0 0 0-138.804 152.533h16.779A152.532 152.532 0 1 1 560.81 606.57z" />
  </symbol>
  <symbol id="fenxiang" class="aicon" viewBox="0 0 1024 1024" xmlns="http://www.w3.org/2000/svg">
    <path fill="#E6EFFF"
      d="M816.166 869.482c28.281 0 51.221-22.482 51.221-51.272V641.404c0-13.937 11.801-25.229 25.432-25.229 14.039 0 25.432 11.546 25.432 25.941v175.992c.141 56.172-45.252 101.838-101.424 102.035H205.84c-56.127-.112-101.537-45.703-101.425-101.83l.001-.205V642.117c-.003-14.13 11.305-25.664 25.432-25.941 14.039 0 25.432 10.885 25.432 25.229V818.21c0 28.332 22.889 51.272 51.221 51.272h609.665zM562.198 453.103c-362.462 10.275-406.918 129.96-406.918 129.96 0-183.215 150.458-365.209 457.783-359.512v-49.695l.966-.916h-.966v-11.699c0-55.697 34.741-71.821 77.62-35.504L901.67 304.68c21.465 18.21 21.465 47.711 0 65.921L690.479 550c-42.726 36.216-77.416 20.448-77.416-35.402V452.39c-17.345 0-34.079.203-50.153.661l-.712-.661v.713zm50.865-51.373c28.077 0 50.865 22.686 50.865 50.661v52.899L862.3 337.589 663.928 169.38v54.12c-.05 28.036-22.818 50.722-50.853 50.672a53.15 53.15 0 0 1-.978-.011c-190.743-3.561-324.364 72.533-378.79 186.165 73.55-34.588 193.184-58.494 379.756-58.494v-.102z" />
  </symbol>
  <symbol id="format-clear" class="aicon" viewBox="0 0 1024 1024" xmlns="http://www.w3.org/2000/svg">
    <path fill="#E6EFFF"
      d="M746.667 512a234.667 234.667 0 1 1 0 469.333 234.667 234.667 0 0 1 0-469.333zM128 810.667h348.757a274.111 274.111 0 0 0 36.224 85.376L128 896a42.667 42.667 0 0 1-4.992-85.035l4.992-.298zm515.968-172.118l-2.987 2.475-2.432 2.987a21.333 21.333 0 0 0 0 24.234l2.475 2.987 75.52 75.477-75.435 75.35-2.432 2.986a21.333 21.333 0 0 0 0 24.235l2.432 2.987 2.987 2.432a21.333 21.333 0 0 0 24.235 0l2.986-2.432 75.35-75.392 75.52 75.477 2.944 2.475a21.333 21.333 0 0 0 24.234 0l2.987-2.475 2.432-2.987a21.333 21.333 0 0 0 0-24.234l-2.432-2.987-75.52-75.435 75.605-75.52 2.475-2.944a21.333 21.333 0 0 0 0-24.277l-2.475-2.944-2.944-2.475a21.333 21.333 0 0 0-24.277 0l-2.944 2.475-75.605 75.52-75.52-75.52-2.902-2.475a21.333 21.333 0 0 0-21.034-1.834l-3.243 1.834zM682.709 128a42.667 42.667 0 0 1 42.624 44.715l-.512 4.821-10.453 64a42.667 42.667 0 0 1-84.736-8.79l.512-4.949 2.347-14.464H487.765l-75.093 469.334h13.995a42.667 42.667 0 0 1 42.368 37.674l.298 4.992a42.667 42.667 0 0 1-37.674 42.368l-4.992.299h-128a42.667 42.667 0 0 1-4.992-85.035l4.992-.298h27.605l75.093-469.334H249.472l-4.779 28.374A42.667 42.667 0 0 1 160 232.533l.512-4.949 10.71-64a42.667 42.667 0 0 1 36.949-35.328l5.12-.256h469.418z" />
  </symbol>
  <symbol id="h-2" class="aicon" viewBox="0 0 1024 1024" xmlns="http://www.w3.org/2000/svg">
    <path fill="#E6EFFF"
      d="M88 448h400V172c0-24.3 19.7-44 44-44s44 19.7 44 44v680c0 24.3-19.7 44-44 44s-44-19.7-44-44V536H88v316c0 24.3-19.7 44-44 44S0 876.3 0 852V172c0-24.3 19.7-44 44-44s44 19.7 44 44v276zm935.282 448H680c.479-41.591 10.533-77.923 30.163-108.997 19.63-31.074 46.44-58.084 80.434-81.031 16.279-11.952 33.275-23.544 50.99-34.779 17.714-11.234 33.993-23.305 48.835-36.213 14.842-12.907 27.05-26.89 36.626-41.95 9.576-15.058 14.603-32.388 15.081-51.988 0-9.083-1.077-18.764-3.231-29.042-2.155-10.278-6.344-19.84-12.568-28.683-6.224-8.845-14.842-16.254-25.854-22.23-11.012-5.976-25.375-8.964-43.09-8.964-16.278 0-29.803 3.227-40.576 9.68-10.772 6.455-19.39 15.299-25.854 26.533-6.463 11.235-11.251 24.5-14.363 39.798-3.112 15.298-4.908 31.791-5.386 49.48h-81.87c0-27.728 3.71-53.423 11.13-77.087 7.422-23.664 18.553-44.101 33.395-61.311 14.842-17.21 32.916-30.715 54.222-40.516 21.305-9.8 46.081-14.7 74.33-14.7 30.641 0 56.255 5.02 76.843 15.059 20.587 10.04 37.224 22.707 49.912 38.005 12.688 15.298 21.665 31.91 26.931 49.838 5.267 17.927 7.9 35.018 7.9 51.272 0 20.078-3.112 38.244-9.336 54.498-6.224 16.254-14.603 31.193-25.136 44.818-10.533 13.625-22.502 26.174-35.908 37.647a538.302 538.302 0 0 0-41.653 32.27 1122.27 1122.27 0 0 0-43.09 28.683c-14.364 9.083-27.65 18.166-39.858 27.249-12.209 9.083-22.862 18.525-31.958 28.325-9.097 9.8-15.321 20.198-18.673 31.193h244.894V896z" />
  </symbol>
  <symbol id="h-1" class="aicon" viewBox="0 0 1024 1024" xmlns="http://www.w3.org/2000/svg">
    <path fill="#E6EFFF"
      d="M584.9 445.3V142.6h86.5v735h-86.5V531.7H152.5v345.9H66.1v-735h86.5v302.6l432.3.1zm258.8 432.3v-.3h-79.8V826h79.8V558.6c-22.5 23.4-49.9 40.4-79.8 49.3v-59.1c17.2-5.2 33.8-12.9 49.1-23 16.2-10.6 30.9-23.7 43.9-38.9h39.9V826h61.7v51.3h-61.7v.3h-53.1z" />
  </symbol>
  <symbol id="h-3" class="aicon" viewBox="0 0 1024 1024" xmlns="http://www.w3.org/2000/svg">
    <path fill="#E6EFFF"
      d="M88 448h400V172c0-24.3 19.7-44 44-44s44 19.7 44 44v680c0 24.3-19.7 44-44 44s-44-19.7-44-44V536H88v316c0 24.3-19.7 44-44 44S0 876.3 0 852V172c0-24.3 19.7-44 44-44s44 19.7 44 44v276zm727.551 149.802c13.128.47 26.257-.469 39.385-2.813 13.129-2.344 24.85-6.447 35.165-12.308 10.316-5.86 18.638-13.948 24.968-24.263 6.33-10.315 9.494-22.975 9.494-37.978 0-21.1-7.15-37.978-21.45-50.638-14.301-12.66-32.704-18.989-55.21-18.989-14.066 0-26.257 2.813-36.572 8.44-10.315 5.626-18.872 13.245-25.67 22.857-6.799 9.612-11.84 20.395-15.121 32.352-3.283 11.956-4.69 24.263-4.22 36.923h-80.177c.938-23.913 5.392-46.066 13.363-66.462 7.97-20.396 18.872-38.095 32.703-53.099 13.832-15.004 30.594-26.725 50.287-35.165C802.188 388.22 824.459 384 849.31 384c19.223 0 38.095 2.813 56.616 8.44 18.52 5.626 35.165 13.831 49.934 24.615 14.77 10.784 26.609 24.498 35.517 41.143 8.909 16.645 13.363 35.75 13.363 57.318 0 24.85-5.626 46.535-16.88 65.055-11.252 18.52-28.835 32-52.747 40.44v1.407c28.132 5.626 50.052 19.575 65.759 41.846 15.707 22.27 23.56 49.348 23.56 81.23 0 23.444-4.688 44.425-14.065 62.946-9.378 18.52-22.037 34.227-37.979 47.12-15.942 12.894-34.462 22.858-55.561 29.89-21.1 7.034-43.37 10.55-66.814 10.55-28.601 0-53.568-4.103-74.902-12.308-21.334-8.205-39.15-19.81-53.451-34.813-14.3-15.004-25.202-33.055-32.704-54.154-7.502-21.099-11.487-44.542-11.956-70.33h80.177c-.938 30.008 6.447 54.975 22.154 74.902s39.268 29.89 70.682 29.89c26.726 0 49.114-7.62 67.166-22.857 18.051-15.239 27.077-36.923 27.077-65.055 0-19.224-3.751-34.462-11.253-45.715-7.502-11.252-17.348-19.81-29.539-25.67-12.19-5.86-25.905-9.494-41.143-10.901-15.239-1.407-30.828-1.875-46.77-1.407v-59.78z" />
  </symbol>
  <symbol id="horizontal-rule" class="aicon" viewBox="0 0 1024 1024" xmlns="http://www.w3.org/2000/svg">
    <path fill="#E6EFFF"
      d="M411.648 640h52.672V256h-52.672v167.04h-167.04V256H192v384h52.672V473.216h167.04V640zm362.752 0H832l-81.92-168.32c8.384-3.712 16.64-8.576 24.896-14.72a106.624 106.624 0 0 0 37.44-51.008c4.096-10.944 6.144-23.296 6.144-37.12a113.28 113.28 0 0 0-5.248-35.648 105.216 105.216 0 0 0-14.08-28.544 96.256 96.256 0 0 0-19.84-21.824 119.296 119.296 0 0 0-47.168-23.872A92.544 92.544 0 0 0 710.4 256H552.96v384h52.736V481.152h93.888L774.4 640zm-43.584-212.48a55.936 55.936 0 0 1-18.752 3.52H605.632V306.368h106.432a55.68 55.68 0 0 1 36.864 15.36c5.632 5.12 10.368 11.584 14.08 19.456 3.648 7.872 5.504 17.088 5.504 27.712 0 10.752-1.856 20.096-5.568 27.968a58.24 58.24 0 0 1-32.192 30.656zM832 768H192v64h640v-64z" />
  </symbol>
  <symbol id="italic" class="aicon" viewBox="0 0 1024 1024" xmlns="http://www.w3.org/2000/svg">
    <path fill="#E6EFFF"
      d="M191.777 949.728l9.728-48.576q12.576-4 35.136-9.44t41.152-10.848 34.016-13.44q16-20 23.424-57.728.576-4 35.424-165.152t65.152-310.56 29.728-169.44v-14.272q-13.728-7.424-31.136-10.56t-39.712-4.576T361.537 132l10.848-58.848q18.848 1.152 68.576 3.712t85.44 4 68.864 1.44q27.424 0 56.288-1.44t69.152-4 56.288-3.712Q774.145 95.424 766.145 124q-17.152 5.728-58.016 16.288t-62.016 19.136q-4.576 10.848-8 24.288t-5.152 22.848-4.288 26.016-3.712 24q-15.424 84.576-50.016 239.712t-44.288 203.136l-7.424 33.152q-6.272 28-11.424 51.424t-9.152 47.712-3.424 32.864l.576 10.272q9.728 2.272 105.728 17.728-1.728 25.152-9.152 56.576-6.272 0-18.56.864t-18.56.864q-16.576 0-49.728-5.728t-49.152-5.728q-78.848-1.152-117.728-1.152-29.152 0-81.728 5.152t-69.152 6.272z" />
  </symbol>
  <symbol id="list-check-2" class="aicon" viewBox="0 0 1024 1024" xmlns="http://www.w3.org/2000/svg">
    <path
      d="M352 640v256c0 17.6-14.4 32-32 32H64c-17.6 0-32-14.4-32-32V640c0-17.6 14.4-32 32-32h256c17.6 0 32 14.4 32 32zm0-512v256c0 17.6-14.4 32-32 32H64c-17.6 0-32-14.4-32-32V128c0-17.6 14.4-32 32-32h256c17.6 0 32 14.4 32 32z"
      fill="#E0EBFE" />
    <path
      d="M64 448h256c35.296 0 64-28.704 64-64V128c0-35.296-28.704-64-64-64H64C28.704 64 0 92.704 0 128v256c0 35.296 28.704 64 64 64zm0-320h256l-.096 256H64V128zm0 832h256c35.296 0 64-28.704 64-64V640c0-35.296-28.704-64-64-64H64c-35.296 0-64 28.704-64 64v256c0 35.296 28.704 64 64 64zm0-320h256l-.096 256H64V640zm928-480H480a32 32 0 0 0 0 64h512a32 32 0 0 0 0-64zM480 352h320a32 32 0 0 0 0-64H480a32 32 0 0 0 0 64zm512 320H480a32 32 0 1 0 0 64h512a32 32 0 1 0 0-64zM800 864a32 32 0 1 0 0-64H480a32 32 0 1 0 0 64h320z"
      fill="#5465CF" />
  </symbol>
  <symbol id="list-ordered" class="aicon" viewBox="0 0 1024 1024" xmlns="http://www.w3.org/2000/svg">
    <path fill="#E6EFFF"
      d="M920 760H336c-4.4 0-8 3.6-8 8v56c0 4.4 3.6 8 8 8h584c4.4 0 8-3.6 8-8v-56c0-4.4-3.6-8-8-8zm0-568H336c-4.4 0-8 3.6-8 8v56c0 4.4 3.6 8 8 8h584c4.4 0 8-3.6 8-8v-56c0-4.4-3.6-8-8-8zm0 284H336c-4.4 0-8 3.6-8 8v56c0 4.4 3.6 8 8 8h584c4.4 0 8-3.6 8-8v-56c0-4.4-3.6-8-8-8zM216 712H100c-2.2 0-4 1.8-4 4v34c0 2.2 1.8 4 4 4h72.4v20.5h-35.7c-2.2 0-4 1.8-4 4v34c0 2.2 1.8 4 4 4h35.7V838H100c-2.2 0-4 1.8-4 4v34c0 2.2 1.8 4 4 4h116c2.2 0 4-1.8 4-4V716c0-2.2-1.8-4-4-4zM100 188h38v120c0 2.2 1.8 4 4 4h40c2.2 0 4-1.8 4-4V152c0-4.4-3.6-8-8-8h-78c-2.2 0-4 1.8-4 4v36c0 2.2 1.8 4 4 4zm116 240H100c-2.2 0-4 1.8-4 4v36c0 2.2 1.8 4 4 4h68.4l-70.3 77.7c-1.3 1.5-2.1 3.4-2.1 5.4V592c0 2.2 1.8 4 4 4h116c2.2 0 4-1.8 4-4v-36c0-2.2-1.8-4-4-4h-68.4l70.3-77.7c1.3-1.5 2.1-3.4 2.1-5.4V432c0-2.2-1.8-4-4-4z" />
  </symbol>
  <symbol id="list-unordered" class="aicon" viewBox="0 0 1024 1024" xmlns="http://www.w3.org/2000/svg">
    <path fill="#E6EFFF"
      d="M260.267 266.667c0 21.333-6.4 38.4-21.334 53.333s-32 21.333-53.333 21.333-38.4-6.4-53.333-21.333-21.334-32-21.334-53.333 6.4-38.4 21.334-53.334S164.267 192 185.6 192s38.4 6.4 53.333 21.333 21.334 32 21.334 53.334zM185.6 437.333c21.333 0 38.4 6.4 53.333 21.334s21.334 32 21.334 53.333-6.4 38.4-21.334 53.333-32 21.334-53.333 21.334-38.4-6.4-53.333-21.334-21.334-32-21.334-53.333 6.4-38.4 21.334-53.333 32-21.334 53.333-21.334zm0 247.467c21.333 0 38.4 6.4 53.333 21.333s21.334 32 21.334 53.334-6.4 38.4-21.334 53.333-32 21.333-53.333 21.333-38.4-6.4-53.333-21.333-21.334-32-21.334-53.333 6.4-38.4 21.334-53.334 32-21.333 53.333-21.333zm714.667-394.667c0 4.267-2.134 8.534-6.4 12.8-4.267 4.267-8.534 4.267-12.8 4.267H326.4c-4.267 0-8.533-2.133-12.8-4.267-4.267-4.266-6.4-8.533-6.4-12.8V243.2c0-4.267 2.133-8.533 6.4-12.8 4.267-4.267 8.533-4.267 12.8-4.267h554.667c4.266 0 8.533 2.134 12.8 4.267 4.266 4.267 6.4 8.533 6.4 12.8v46.933zm0 245.334c0 4.266-2.134 8.533-6.4 12.8-4.267 4.266-8.534 4.266-12.8 4.266H326.4c-4.267 0-8.533-2.133-12.8-4.266-4.267-4.267-6.4-8.534-6.4-12.8v-46.934c0-4.266 2.133-8.533 6.4-12.8 4.267-4.266 8.533-4.266 12.8-4.266h554.667c4.266 0 8.533 2.133 12.8 4.266 4.266 4.267 6.4 8.534 6.4 12.8v46.934zm0 245.333c0 4.267-2.134 8.533-6.4 12.8-4.267 4.267-8.534 4.267-12.8 4.267H326.4c-4.267 0-8.533-2.134-12.8-4.267-4.267-4.267-6.4-8.533-6.4-12.8v-46.933c0-4.267 2.133-8.534 6.4-12.8 4.267-4.267 8.533-4.267 12.8-4.267h554.667c4.266 0 8.533 2.133 12.8 4.267 4.266 4.266 6.4 8.533 6.4 12.8V780.8zm-640-514.133c0 21.333-6.4 38.4-21.334 53.333s-32 21.333-53.333 21.333-38.4-6.4-53.333-21.333-21.334-32-21.334-53.333 6.4-38.4 21.334-53.334S164.267 192 185.6 192s38.4 6.4 53.333 21.333 21.334 32 21.334 53.334zM185.6 437.333c21.333 0 38.4 6.4 53.333 21.334s21.334 32 21.334 53.333-6.4 38.4-21.334 53.333-32 21.334-53.333 21.334-38.4-6.4-53.333-21.334-21.334-32-21.334-53.333 6.4-38.4 21.334-53.333 32-21.334 53.333-21.334zm0 247.467c21.333 0 38.4 6.4 53.333 21.333s21.334 32 21.334 53.334-6.4 38.4-21.334 53.333-32 21.333-53.333 21.333-38.4-6.4-53.333-21.333-21.334-32-21.334-53.333 6.4-38.4 21.334-53.334 32-21.333 53.333-21.333zm714.667-394.667c0 4.267-2.134 8.534-6.4 12.8-4.267 4.267-8.534 4.267-12.8 4.267H326.4c-4.267 0-8.533-2.133-12.8-4.267-4.267-4.266-6.4-8.533-6.4-12.8V243.2c0-4.267 2.133-8.533 6.4-12.8 4.267-4.267 8.533-4.267 12.8-4.267h554.667c4.266 0 8.533 2.134 12.8 4.267 4.266 4.267 6.4 8.533 6.4 12.8v46.933zm0 245.334c0 4.266-2.134 8.533-6.4 12.8-4.267 4.266-8.534 4.266-12.8 4.266H326.4c-4.267 0-8.533-2.133-12.8-4.266-4.267-4.267-6.4-8.534-6.4-12.8v-46.934c0-4.266 2.133-8.533 6.4-12.8 4.267-4.266 8.533-4.266 12.8-4.266h554.667c4.266 0 8.533 2.133 12.8 4.266 4.266 4.267 6.4 8.534 6.4 12.8v46.934zm0 245.333c0 4.267-2.134 8.533-6.4 12.8-4.267 4.267-8.534 4.267-12.8 4.267H326.4c-4.267 0-8.533-2.134-12.8-4.267-4.267-4.267-6.4-8.533-6.4-12.8v-46.933c0-4.267 2.133-8.534 6.4-12.8 4.267-4.267 8.533-4.267 12.8-4.267h554.667c4.266 0 8.533 2.133 12.8 4.267 4.266 4.266 6.4 8.533 6.4 12.8V780.8z" />
  </symbol>
  <symbol id="mark-pen-line" class="aicon" viewBox="0 0 1024 1024" xmlns="http://www.w3.org/2000/svg">
    <path
      d="M650.368 192.64L362.88 480.085l-30.165 90.496-44.374 44.416 120.662 120.704 44.373-44.416 90.539-30.165L831.36 373.632 650.368 192.64zm271.53 150.827a42.667 42.667 0 0 1 0 60.33L589.996 735.701l-90.454 30.166-60.373 60.33a42.667 42.667 0 0 1-60.33 0L197.802 645.163a42.667 42.667 0 0 1 0-60.331l60.33-60.33 30.166-90.497 331.904-331.904a42.667 42.667 0 0 1 60.33 0L921.9 343.467zM650.369 313.3l60.33 60.331-211.2 211.2-60.33-60.33 211.2-211.2zM182.741 720.64l120.662 120.704-60.331 60.33-181.035-60.33L182.7 720.64z"
      fill="#E6EFFF" />
  </symbol>
  <symbol id="paragraph" class="aicon" viewBox="0 0 1024 1024" xmlns="http://www.w3.org/2000/svg">
    <path
      d="M682.667 597.333A42.667 42.667 0 0 1 725.333 640v213.333a42.667 42.667 0 0 1-85.333 0V640a42.667 42.667 0 0 1 42.667-42.667zM725.333 230.4V512A42.667 42.667 0 0 1 640 512V230.4a17.067 17.067 0 0 0-17.067-17.067h-51.2a17.067 17.067 0 0 0-17.066 17.067v622.933a42.667 42.667 0 0 1-85.334 0V554.667H384A213.333 213.333 0 0 1 384 128h426.667a42.667 42.667 0 0 1 0 85.333H742.4a17.067 17.067 0 0 0-17.067 17.067zm-273.066-17.067H384a128 128 0 1 0 0 256h68.267a17.067 17.067 0 0 0 17.066-17.066V230.4a17.067 17.067 0 0 0-17.066-17.067z"
      fill="#E6EFFF" />
  </symbol>
  <symbol id="pinglun" class="aicon" viewBox="0 0 1058 1024" xmlns="http://www.w3.org/2000/svg">
    <path fill="#E6EFFF"
      d="M330.744 885.372l194.78-129.862 16.666-11.106h383.845c36.486 0 66.198-29.66 66.198-66.146V149.062c0-36.435-29.712-66.108-66.198-66.108h-793.73c-36.486 0-66.146 29.66-66.146 66.108v529.196c0 36.486 29.66 66.146 66.146 66.146h198.44v140.968m-66.147 123.578v-198.4H132.305C59.281 810.55 0 751.334 0 678.258V149.062C0 76.024 59.268 16.808 132.305 16.808h793.743c73.076 0 132.357 59.216 132.357 132.24v529.197c0 73.076-59.268 132.292-132.357 132.292h-363.83l-297.62 198.413zm0 0" />
  </symbol>
  <symbol id="separator" class="aicon" viewBox="0 0 1024 1024" xmlns="http://www.w3.org/2000/svg">
    <path
      d="M128 554.667c-25.6 0-42.667-17.067-42.667-42.667S102.4 469.333 128 469.333 170.667 486.4 170.667 512 153.6 554.667 128 554.667zm597.333 0H298.667C273.067 554.667 256 537.6 256 512s17.067-42.667 42.667-42.667h426.666C750.933 469.333 768 486.4 768 512s-17.067 42.667-42.667 42.667zm170.667 0c-25.6 0-42.667-17.067-42.667-42.667S870.4 469.333 896 469.333 938.667 486.4 938.667 512 921.6 554.667 896 554.667z"
      fill="#E6EFFF" />
  </symbol>
  <symbol id="strikethrough" class="aicon" viewBox="0 0 1024 1024" xmlns="http://www.w3.org/2000/svg">
    <path
      d="M175.78 523.794h248.577c11.154 3.42 22.29 6.857 34.706 9.417l79.287 18.853c88.722 21.43 126.007 50.578 126.007 102.016 0 61.696-62.995 105.856-152.576 105.856-79.287 0-138.423-35.584-160.714-96.439-7.716-18.432-17.133-26.569-35.145-26.569-22.71 0-36.845 14.135-36.845 36.425 0 7.717.859 15.854 2.998 24.01 22.711 81.005 112.275 131.565 230.144 131.565 141.861 0 233.143-72.411 233.143-184.283 0-53.578-19.712-92.16-63.012-120.869H848.2a17.371 17.371 0 0 0 17.591-17.554 17.371 17.371 0 0 0-17.573-17.573H602.222a408.283 408.283 0 0 0-38.144-10.295l-69.852-16.713c-87.003-20.992-123.867-47.561-123.867-95.14 0-59.996 59.136-102.437 140.983-102.437 73.728 0 126.445 33.445 147.437 92.58 7.296 16.275 17.152 23.991 34.286 23.991 22.309 0 36.023-12.854 36.023-34.285 0-6.419-.878-13.276-2.597-19.712-19.273-77.989-104.996-131.566-215.131-131.566-129.006 0-221.989 73.29-221.989 177.006 0 50.56 18.835 88.283 59.136 116.571H175.781a17.371 17.371 0 0 0-17.555 17.554c0 9.875 7.699 17.591 17.555 17.591z"
      fill="#E6EFFF" />
  </symbol>
  <symbol id="text-wrap" class="aicon" viewBox="0 0 1024 1024" xmlns="http://www.w3.org/2000/svg">
    <path
      d="M853.333 298.667H170.667C145.067 298.667 128 281.6 128 256s17.067-42.667 42.667-42.667h682.666C878.933 213.333 896 230.4 896 256s-17.067 42.667-42.667 42.667zM384 810.667H170.667C145.067 810.667 128 793.6 128 768s17.067-42.667 42.667-42.667H384c25.6 0 42.667 17.067 42.667 42.667S409.6 810.667 384 810.667z"
      fill="#E6EFFF" />
    <path
      d="M640 896c-12.8 0-21.333-4.267-29.867-12.8L524.8 797.867l-4.267-4.267c-4.266-8.533-8.533-12.8-8.533-21.333v-8.534c0-8.533 4.267-21.333 12.8-25.6l85.333-85.333c17.067-17.067 42.667-17.067 59.734 0 17.066 17.067 17.066 42.667 0 59.733l-12.8 12.8h68.266c46.934 0 85.334-38.4 85.334-85.333s-38.4-85.333-85.334-85.333H170.667C145.067 554.667 128 537.6 128 512s17.067-42.667 42.667-42.667h554.666C819.2 469.333 896 546.133 896 640s-76.8 170.667-170.667 170.667h-68.266l12.8 12.8c17.066 17.066 17.066 42.666 0 59.733C661.333 891.733 652.8 896 640 896z"
      fill="#E6EFFF" />
  </symbol>
  <symbol id="image" class="aicon" viewBox="0 0 1024 1024"
    xmlns="http://www.w3.org/2000/svg">
    <path
      d="M784 112H240c-88 0-160 72-160 160v480c0 88 72 160 160 160h544c88 0 160-72 160-160V272c0-88-72-160-160-160zm96 640c0 52.8-43.2 96-96 96H240c-52.8 0-96-43.2-96-96V272c0-52.8 43.2-96 96-96h544c52.8 0 96 43.2 96 96v480z"
      fill="#E6EFFF" />
    <path
      d="M352 480c52.8 0 96-43.2 96-96s-43.2-96-96-96-96 43.2-96 96 43.2 96 96 96zm0-128c17.6 0 32 14.4 32 32s-14.4 32-32 32-32-14.4-32-32 14.4-32 32-32zm462.4 379.2l-3.2-3.2-177.6-177.6c-25.6-25.6-65.6-25.6-91.2 0l-80 80-36.8-36.8c-25.6-25.6-65.6-25.6-91.2 0L200 728c-4.8 6.4-8 14.4-8 24 0 17.6 14.4 32 32 32 9.6 0 16-3.2 22.4-9.6L380.8 640l134.4 134.4c6.4 6.4 14.4 9.6 24 9.6 17.6 0 32-14.4 32-32 0-9.6-4.8-17.6-9.6-24l-52.8-52.8 80-80L769.6 776c6.4 4.8 12.8 8 20.8 8 17.6 0 32-14.4 32-32 0-8-3.2-16-8-20.8z"
      fill="#E6EFFF" />
  </symbol>
</svg>